HIERARCHY
ROOT Hips
{
	OFFSET	0.00	0.00	0.00
	CHANNELS 6 Xposition Yposition Zposition Zrotation Xrotation Yrotation
	JOINT Spine
	{
		OFFSET	 0.00	0.01	 0.00
		CHANNELS 3 Zrotation Xrotation Yrotation
		JOINT Spine1
		{
			OFFSET	 0.00	 2.45913012437421	 0.00
			CHANNELS 3 Zrotation Xrotation Yrotation
            JOINT Neck
            {
                OFFSET	 0.00	 2.48462964506057	 0.00
                CHANNELS 3 Zrotation Xrotation Yrotation
                JOINT Head
                {
                    OFFSET	 0.00	 0.927524780924562	 0.00
                    CHANNELS 3 Zrotation Xrotation Yrotation
                    End Site 
                    {
                        OFFSET	 0.00	 1.14999962169752	 0.00
                    }
                }
            }
			JOINT LeftShoulder
			{
				OFFSET	 0.00	 2.48462964506057	 0.00
				CHANNELS 3 Zrotation Xrotation Yrotation
				JOINT LeftUpArm
				{
					OFFSET	 0.00	 1.24881979654096	 0.00
					CHANNELS 3 Zrotation Xrotation Yrotation
					JOINT LeftForeArm
					{
						OFFSET	 0.00	2.59758046908119	 0.00
						CHANNELS 3 Zrotation Xrotation Yrotation
						JOINT LeftHand
						{
							OFFSET	 0.00	2.45542024364365	 0.00
							CHANNELS 3 Zrotation Xrotation Yrotation
							JOINT LeftHandThumb 
							{
								OFFSET	 0.00	0.00	 0.00
								CHANNELS 3 Zrotation Xrotation Yrotation
								End Site
								{
									OFFSET	 0.00	0.00	1.00000003353624
								}
							}
							JOINT L_Wrist_End 
							{
								OFFSET	 0.00	0.99999967115358	 0.00
								CHANNELS 3 Zrotation Xrotation Yrotation
								End Site 
								{
									OFFSET	 0.00	 0.00	 0.00
								}
							}
						}
					}
				}
			}
			JOINT RightShoulder
			{
				OFFSET	 0.00	 2.48462964506057	 0.00
				CHANNELS 3 Zrotation Xrotation Yrotation
				JOINT RightUpArm
				{
					OFFSET	 0.00	 1.24881979654096	 0.00
					CHANNELS 3 Zrotation Xrotation Yrotation
					JOINT RightForeArm
					{
						OFFSET	 0.00	2.59758046908119	 0.00
						CHANNELS 3 Zrotation Xrotation Yrotation
						JOINT RightHand
						{
							OFFSET	 0.00	2.45542024364365	 0.00
							CHANNELS 3 Zrotation Xrotation Yrotation
							JOINT RightHandThumb 
							{
								OFFSET	 0.00	0.00	 0.00
								CHANNELS 3 Zrotation Xrotation Yrotation
								End Site
								{
									OFFSET	 0.00	0.00	1.00000003353624
								}
							}
							JOINT R_Wrist_End 
							{
								OFFSET	 0.00	0.99999967115358	 0.00
								CHANNELS 3 Zrotation Xrotation Yrotation
								End Site 
								{
									OFFSET	 0.00	 0.00	 0.00
								}
							}
						}
					}
				}
			}
		}
	}
	JOINT LeftUpLeg
	{
		OFFSET	 1.2719394002717	 0.00	 0.00
		CHANNELS 3 Zrotation Xrotation Yrotation
		JOINT LeftLowLeg
		{
			OFFSET	 0.00	-4.3429100912261	 0.00
			CHANNELS 3 Zrotation Xrotation Yrotation
			JOINT LeftFoot
			{
				OFFSET	 0.00	-4.48767017425826	 0.00
				CHANNELS 3 Zrotation Xrotation Yrotation
				JOINT LeftToeBase
                {
                    OFFSET	 0.00	0.00	 1.51507020887566
                    CHANNELS 3 Zrotation Xrotation Yrotation
                    End Site 
                    {
                        OFFSET	 0.00	0.00	 0.75000010571191
                    }
                }
			}
		}
	}
	JOINT RightUpLeg
	{
		OFFSET	 -1.2719393604653	 0.00	 0.00
		CHANNELS 3 Zrotation Xrotation Yrotation
		JOINT RightLowLeg
		{
			OFFSET	 0.00	-4.3429100912261	 0.00
			CHANNELS 3 Zrotation Xrotation Yrotation
			JOINT RightFoot
			{
				OFFSET	 0.00	-4.48767017425826	 0.00
				CHANNELS 3 Zrotation Xrotation Yrotation
				JOINT RightToeBase
                {
                    OFFSET	 0.00	0.00	 1.51507020887566
                    CHANNELS 3 Zrotation Xrotation Yrotation
                    End Site 
                    {
                        OFFSET	 0.00	0.00	 0.749999965609858
                    }
                }   
			}
		}
	}
}
MOTION 
Frames:	13 
Frame Time: 0.02 
  5.652960205078125 3.864179992675781 9.31405029296875 -126.771 80.2615 478.695 1.04116 -14.5734 3.34104 12.5872 17.7577 -9.42739 -5.90468 70.3835 355.437 72.9956 -77.3723 -298.036 -124.5589 3.30388 15.8339 -23.202 28.9757 62.5186 0.0 100.514 0.0 43.1471 20.2234 -14.4439 0.0 0.0 0.0 0.0 0.0 0.0 114.8051 3.78412 -19.2442 17.8374 41.3778 -52.5623 0.0 107.367 0.0 -20.3063 26.6762 -14.0705 0.0 0.0 0.0 0.0 0.0 0.0 20.9299 -13.4489 16.3414 0.0 15.8545 0.0 -21.0154 2.6728 11.2424 0.0 -37.7062 0.0 12.3604 -4.38697 2.51495 0.0 10.1392 0.0 14.6582 4.1377 -13.7957 0.0 -37.863197 0.0 
  5.63666015625 3.87927001953125 9.30698974609375 -124.835 80.0936 476.538 1.05407 -14.6615 3.36267 13.1766 17.9672 -9.41611 -6.23825 70.43 355.743 72.4772 -77.4654 -298.476 -124.6754 3.22219 15.5874 -23.3263 28.9224 62.5427 0.0 100.384 0.0 42.6782 20.5902 -14.1857 0.0 0.0 0.0 0.0 0.0 0.0 114.7101 3.85887 -19.2321 17.6927 41.4809 -52.5048 0.0 107.247 0.0 -20.7664 27.1625 -12.7172 0.0 0.0 0.0 0.0 0.0 0.0 21.3897 -13.0862 15.9022 0.0 15.5002 0.0 -22.0927 2.5436 11.4952 0.0 -37.5474 0.0 12.7897 -4.27353 3.12304 0.0 10.2294 0.0 14.7092 4.1309996 -13.9513 0.0 -38.0593 0.0 
  5.61958984375 3.8920001220703124 9.300250244140624 -123.237 79.9149 474.755 0.891883 -14.862 3.30928 14.0221 18.2531 -9.41676 -6.56274 70.2443 355.983 71.2962 -77.6183 -299.596 -124.8853 3.22517 15.3811 -23.4259 28.7898 62.4621 0.0 100.333 0.0 42.4083 20.692 -14.161 0.0 0.0 0.0 0.0 0.0 0.0 114.5505 3.89538 -19.2147 17.4927 41.5703 -52.4043 0.0 107.348 0.0 -19.6782 26.2756 -15.9542 0.0 0.0 0.0 0.0 0.0 0.0 21.9777 -12.8305 16.7758 0.0 15.4508 0.0 -22.6575 2.6785002 10.6511 0.0 -37.7403 0.0 13.1959 -4.1867 3.68031 0.0 10.3135 0.0 14.7625 4.1202 -14.0876 0.0 -38.1609 0.0 
  5.601160278320313 3.905260009765625 9.296119995117188 -121.655 79.8934 472.998 0.48298 -14.9472 3.18058 14.9518 18.5745 -9.40167 -7.4115 69.861 356.895 70.0056 -77.7641 -300.926 -125.120804 3.16608 15.1619 -23.4937 28.7075 62.289 0.0 100.326 0.0 41.6103 21.0001 -14.0668 0.0 0.0 0.0 0.0 0.0 0.0 114.3984 3.88282 -19.2401 17.2427 41.7441 -52.1998 0.0 107.324 0.0 -19.8631 26.7022 -14.7916 0.0 0.0 0.0 0.0 0.0 0.0 22.4135 -12.5445 17.6872 0.0 15.4724 0.0 -22.9909 2.9463997 9.91996 0.0 -37.7392 0.0 13.4738 -4.04474 4.18143 0.0 10.4232 0.0 14.7865 4.083 -14.2502 0.0 -38.253403 0.0 
  5.583070068359375 3.9189801025390625 9.293880004882812 -120.2 79.9019 471.461 0.0732086 -14.9528 3.04433 15.7463 18.7395 -9.37073 -7.9051 69.5001 357.401 68.5297 -77.8604 -302.473 -125.281 3.16084 15.0557 -23.5741 28.5694 62.1186 0.0 100.373 0.0 40.8834 21.1263 -14.1582 0.0 0.0 0.0 0.0 0.0 0.0 114.2195 3.84216 -19.1807 17.3657 41.8195 -52.1894 0.0 107.241 0.0 -20.1957 26.9203 -12.9906 0.0 0.0 0.0 0.0 0.0 0.0 22.7315 -12.3937 18.202 0.0 15.6336 0.0 -23.1543 3.132 9.53632 0.0 -37.3618 0.0 13.7118 -3.93138 4.52659 0.0 10.5508 0.0 14.7013 4.0747004 -14.4572 0.0 -38.2257 0.0 
  5.567470092773437 3.934159851074219 9.292269897460937 -119.504 79.8788 470.727 -0.224198 -14.9132 2.98469 16.2845 18.6092 -9.25153 -8.18653 69.331 357.69 67.7634 -77.9166 -303.36 -125.372604 3.20078 14.9837 -23.7228 28.3717 62.0963 0.0 100.366 0.0 40.4157 21.5202 -13.8479 0.0 0.0 0.0 0.0 0.0 0.0 114.115 3.71363 -19.2324 17.4382 41.8432 -52.0405 0.0 107.194 0.0 -19.7583 27.0404 -12.5067 0.0 0.0 0.0 0.0 0.0 0.0 22.9555 -12.4467 18.2823 0.0 15.8305 0.0 -23.1796 3.2423 9.51927 0.0 -37.3313 0.0 13.8992 -4.00583 4.61057 0.0 10.7451 0.0 14.5483 4.1239996 -14.4747 0.0 -38.194702 0.0 
  5.554310302734375 3.9506100463867186 9.290859985351563 -118.975 79.852 470.181 -0.414951 -14.7253 2.9466 16.6104 18.2265 -9.10877 -8.54365 69.3426 358.057 67.6584 -78.0053 -303.548 -125.420105 3.1434 14.9304 -23.9001 28.2251 62.275 0.0 100.349 0.0 40.1486 21.8137 -13.5883 0.0 0.0 0.0 0.0 0.0 0.0 114.0109 3.63583 -19.2957 17.6559 41.7756 -52.1007 0.0 107.185 0.0 -18.645 26.8798 -15.06 0.0 0.0 0.0 0.0 0.0 0.0 23.0747 -12.5553 17.7793 0.0 15.9863 0.0 -23.2421 3.1868 9.95543 0.0 -37.397697 0.0 14.0494 -4.16298 4.43779 0.0 11.0119 0.0 14.3907 4.2053003 -14.3196 0.0 -38.2788 0.0 
  5.543099975585937 3.9645700073242187 9.289130249023437 -118.372 79.8198 469.567 -0.449598 -14.5381 2.99848 16.7445 17.8121 -8.93497 -8.6834 69.4391 358.167 67.8709 -78.0878 -303.473 -125.4659 3.13269 14.9235 -23.999 28.0871 62.4707 0.0 100.374 0.0 40.3757 21.9687 -13.3437 0.0 0.0 0.0 0.0 0.0 0.0 113.9654 3.50803 -19.2944 17.8443 41.7952 -52.3825 0.0 107.154 0.0 -19.4879 26.7313 -13.807 0.0 0.0 0.0 0.0 0.0 0.0 23.1956 -12.6212 17.4725 0.0 16.1012 0.0 -23.2133 3.1730003 10.2548 0.0 -37.711502 0.0 14.18 -4.31012 4.07814 0.0 11.2848 0.0 14.247 4.3289003 -14.0028 0.0 -38.5666 0.0 
  5.533619995117188 3.9768701171875 9.287219848632812 -117.81 79.801 469.012 -0.45251 -14.3509 3.05463 16.8036 17.3868 -8.77155 -8.71805 69.5572 358.149 68.1593 -78.1661 -303.285 -125.501495 3.1055 14.992 -24.0821 28.0364 62.6176 0.0 100.399 0.0 40.2303 21.876 -13.4895 0.0 0.0 0.0 0.0 0.0 0.0 113.891 3.41301 -19.2848 18.0127 41.6821 -52.5005 0.0 107.139 0.0 -19.6889 26.8113 -13.0623 0.0 0.0 0.0 0.0 0.0 0.0 23.2885 -12.669 17.3086 0.0 16.1811 0.0 -23.1381 3.1784 10.4594 0.0 -37.7738 0.0 14.2963 -4.43594 3.80212 0.0 11.5508 0.0 13.9725 4.3718996 -13.8715 0.0 -38.4318 0.0 
  5.525590209960938 3.987130126953125 9.284749755859375 -117.616 79.7462 468.779 -0.326919 -14.3114 3.17288 16.7181 17.1079 -8.63275 -8.49766 69.6023 357.844 68.6038 -78.2282 -302.891 -125.5393 3.05569 14.9327 -24.1225 28.0143 62.7459 0.0 100.369 0.0 40.2255 21.9803 -13.3681 0.0 0.0 0.0 0.0 0.0 0.0 113.8231 3.57073 -18.9858 18.3671 41.4028 -52.8931 0.0 107.175 0.0 -18.8954 26.7576 -14.1656 0.0 0.0 0.0 0.0 0.0 0.0 23.4219 -12.7014 17.4142 0.0 16.1937 0.0 -23.0651 3.1826 10.4743 0.0 -37.492 0.0 14.4235 -4.55187 3.70353 0.0 11.6924 0.0 13.8373 4.4019003 -13.7906 0.0 -38.4728 0.0 
  5.519840087890625 3.994590148925781 9.282340087890624 -117.043 79.702 468.208 -0.114271 -14.3159 3.2742 16.5555 17.0129 -8.59358 -8.52046 69.5855 357.854 68.7934 -78.2656 -302.7 -125.5685 2.97613 14.8964 -24.1095 28.0862 62.8152 0.0 100.306 0.0 40.1513 21.8862 -13.4987 0.0 0.0 0.0 0.0 0.0 0.0 113.8367 3.61904 -19.1326 18.1968 41.4472 -52.8503 0.0 107.194 0.0 -19.6635 26.7306 -13.8865 0.0 0.0 0.0 0.0 0.0 0.0 23.5525 -12.6705 17.4689 0.0 16.2203 0.0 -23.1113 3.1767998 10.3967 0.0 -37.4594 0.0 14.5501 -4.49811 3.81802 0.0 11.6676 0.0 13.7711 4.4019003 -13.8958 0.0 -38.4939 0.0 
  5.514390258789063 3.999339904785156 9.28041015625 -116.429 79.6576 467.687 0.0639688 -14.4111 3.3122 16.4643 17.0315 -8.6326 -8.45578 69.5435 357.736 68.7745 -78.3183 -302.723 -125.6476 2.93029 14.9265 -24.009 28.1763 62.661 0.0 100.222 0.0 40.1287 21.901 -13.4877 0.0 0.0 0.0 0.0 0.0 0.0 113.8227 3.69004 -19.1702 18.0314 41.4833 -52.8708 0.0 107.21 0.0 -20.1637 26.6097 -13.7598 0.0 0.0 0.0 0.0 0.0 0.0 23.6762 -12.6722 17.4172 0.0 16.2762 0.0 -23.1979 3.1999998 10.2985 0.0 -37.689 0.0 14.6694 -4.3364 4.01545 0.0 11.4717 0.0 13.8131 4.3753996 -14.1074 0.0 -38.4356 0.0 
  5.5096197509765625 4.004519958496093 9.27875 -116.193 79.5804 467.56 0.259323 -14.5795 3.31381 16.3541 17.1099 -8.73355 -8.64669 69.4872 357.944 68.8911 -78.365 -302.564 -125.7061 2.82476 14.8309 -23.9548 28.2609 62.6448 0.0 100.118 0.0 39.7453 22.0839 -13.385 0.0 0.0 0.0 0.0 0.0 0.0 113.8263 3.78836 -19.108 17.9438 41.5514 -52.8684 0.0 107.127 0.0 -20.0208 26.7844 -13.7441 0.0 0.0 0.0 0.0 0.0 0.0 23.8194 -12.7745 17.3065 0.0 16.3551 0.0 -23.3477 3.2238998 10.2114 0.0 -37.6843 0.0 14.7845 -4.21763 4.16913 0.0 11.2118 0.0 13.8688 4.3926 -14.2778 0.0 -38.408897 0.0 
